<!-- icon666.com - MILLIONS OF FREE VECTOR ICONS --><svg viewBox="-37 0 478 478" xmlns="http://www.w3.org/2000/svg" xmlns:xlink="http://www.w3.org/1999/xlink"><linearGradient id="lg1"><stop offset=".322" stop-color="#a163f5"></stop><stop offset=".466" stop-color="#b074ee"></stop><stop offset=".752" stop-color="#d8a1dd"></stop><stop offset=".898" stop-color="#efbad3"></stop></linearGradient><linearGradient id="linear0" gradientUnits="userSpaceOnUse" x1="202.361" x2="202.361" xlink:href="#lg1" y1="471" y2="-1.356"></linearGradient><linearGradient id="linear1" gradientUnits="userSpaceOnUse" x1="262.34" x2="262.34" xlink:href="#lg1" y1="471" y2="-1.356"></linearGradient><linearGradient id="linear2" gradientUnits="userSpaceOnUse" x1="208.486" x2="208.486" xlink:href="#lg1" y1="471" y2="-1.356"></linearGradient><linearGradient id="linear3" gradientUnits="userSpaceOnUse" x1="279.69" x2="279.69" xlink:href="#lg1" y1="471" y2="-1.356"></linearGradient><linearGradient id="linear4" gradientUnits="userSpaceOnUse" x1="225.57" x2="225.57" xlink:href="#lg1" y1="471" y2="-1.356"></linearGradient><linearGradient id="linear5" gradientUnits="userSpaceOnUse" x1="158.361" x2="158.361" xlink:href="#lg1" y1="471" y2="-1.356"></linearGradient><linearGradient id="linear6" gradientUnits="userSpaceOnUse" x1="238.736" x2="238.736" xlink:href="#lg1" y1="471" y2="-1.356"></linearGradient><linearGradient id="linear7" gradientUnits="userSpaceOnUse" x1="283.861" x2="283.861" xlink:href="#lg1" y1="471" y2="-1.356"></linearGradient><linearGradient id="linear8" gradientUnits="userSpaceOnUse" x1="128.361" x2="128.361" xlink:href="#lg1" y1="471" y2="-1.356"></linearGradient><linearGradient id="linear9" gradientUnits="userSpaceOnUse" x1="208.611" x2="208.611" xlink:href="#lg1" y1="471" y2="-1.356"></linearGradient><linearGradient id="linear11" gradientUnits="userSpaceOnUse" x1="154.361" x2="154.361" xlink:href="#lg1" y1="471" y2="-1.356"></linearGradient><path d="m360.746094 76.75h-38.457032v-40.039062c-.023437-20.265626-16.445312-36.6875005-36.710937-36.710938h-119.492187c-.199219 0-.402344.0117188-.601563.03125-.144531.015625-.292969.0390625-.433594.0664062-.050781.0078128-.101562.0117188-.144531.0195318-.171875.035156-.339844.078124-.5.125l-.0625.019531c-.171875.050781-.335938.109375-.5.175781-.019531.007812-.039062.011719-.054688.019531-.15625.066407-.304687.140625-.453124.214844l-.078126.039063c-.140624.074218-.277343.15625-.410156.242187-.03125.023437-.0625.039063-.09375.058594-.136718.09375-.269531.191406-.398437.300781-.023438.019531-.050781.035156-.074219.054688-.152344.125-.300781.261718-.441406.398437l-74.988282 74.984375h-42.875c-24.277343.027344-43.9492182 19.699219-43.976562 43.976562v231.875c.0273438 24.273438 19.699219 43.949219 43.976562 43.976563h152.382813v69.421875h-72.445313c-3.3125 0-6 2.6875-6 6s2.6875 6 6 6h161.433594c3.3125 0 6-2.6875 6-6s-2.6875-6-6-6h-76.988281v-69.417969h152.386719c24.277344-.027343 43.953125-19.703125 43.976562-43.980469v-231.875c-.027344-24.277343-19.699218-43.949218-43.976562-43.976562zm-50.457032-40.039062v276.359374h-215.855468v-223.417968h40.941406c20.265625-.023438 36.6875-16.445313 36.710938-36.710938v-40.941406h113.492187c13.640625.015625 24.695313 11.070312 24.710937 24.710938zm-207.371093 40.941406 57.167969-57.167969v32.457031c-.015626 13.640625-11.070313 24.695313-24.710938 24.710938zm-58.941407 11.101562h38.457032v224.316406h-70.433594v-192.34375c.019531-17.652343 14.324219-31.957031 31.976562-31.976562zm316.769532 295.832032h-316.769532c-17.65625-.023438-31.960937-14.332032-31.976562-31.984376v-27.53125h380.722656v27.53125c-.019531 17.652344-14.324218 31.960938-31.976562 31.980469zm31.976562-71.511719h-70.433594v-224.324219h38.457032c17.652344.019531 31.957031 14.324219 31.976562 31.976562zm0 0" fill="url(#linear0)"></path><path d="m232.320312 148h60.039063c3.316406 0 6-2.6875 6-6s-2.683594-6-6-6h-60.039063c-3.3125 0-6 2.6875-6 6s2.6875 6 6 6zm0 0" fill="url(#linear1)"></path><path d="m208.359375 148h.25c3.316406 0 6-2.6875 6-6s-2.683594-6-6-6h-.25c-3.3125 0-6 2.6875-6 6s2.6875 6 6 6zm0 0" fill="url(#linear2)"></path><path d="m292.359375 179.332031h-25.339844c-3.316406 0-6 2.6875-6 6 0 3.316407 2.683594 6 6 6h25.339844c3.316406 0 6-2.683593 6-6 0-3.3125-2.683594-6-6-6zm0 0" fill="url(#linear3)"></path><path d="m208.359375 191.332031h34.417969c3.316406 0 6-2.683593 6-6 0-3.3125-2.683594-6-6-6h-34.417969c-3.3125 0-6 2.6875-6 6 0 3.316407 2.6875 6 6 6zm0 0" fill="url(#linear4)"></path><path d="m108.359375 228.667969c0 3.3125 2.6875 6 6 6h88c3.316406 0 6-2.6875 6-6 0-3.316407-2.683594-6-6-6h-88c-3.3125 0-6 2.683593-6 6zm0 0" fill="url(#linear5)"></path><path d="m252.109375 222.667969h-26.75c-3.3125 0-6 2.683593-6 6 0 3.3125 2.6875 6 6 6h26.75c3.316406 0 6-2.6875 6-6 0-3.316407-2.683594-6-6-6zm0 0" fill="url(#linear6)"></path><path d="m292.359375 222.667969h-17c-3.3125 0-6 2.683593-6 6 0 3.3125 2.6875 6 6 6h17c3.316406 0 6-2.6875 6-6 0-3.316407-2.683594-6-6-6zm0 0" fill="url(#linear7)"></path><path d="m142.359375 266h-28c-3.3125 0-6 2.6875-6 6s2.6875 6 6 6h28c3.316406 0 6-2.6875 6-6s-2.683594-6-6-6zm0 0" fill="url(#linear8)"></path><path d="m252.109375 266h-87c-3.3125 0-6 2.6875-6 6s2.6875 6 6 6h87c3.316406 0 6-2.6875 6-6s-2.683594-6-6-6zm0 0" fill="url(#linear9)"></path><path d="m292.359375 266h-17c-3.3125 0-6 2.6875-6 6s2.6875 6 6 6h17c3.316406 0 6-2.6875 6-6s-2.683594-6-6-6zm0 0" fill="url(#linear7)"></path><path d="m142.5 119.113281-.183594.03125c-5.109375 1.046875-8.777344 5.539063-8.792968 10.75v44.335938c-6.597657-1.738281-13.574219.878906-17.402344 6.527343-3.828125 5.652344-3.667969 13.105469.394531 18.585938 4.0625 5.484375 11.144531 7.804688 17.664063 5.785156 6.519531-2.015625 11.058593-7.929687 11.3125-14.75.023437-.199218.03125-.40625.03125-.613281v-40.398437l37.746093-6.667969v25.179687c-6.816406-1.746094-13.976562 1.136719-17.675781 7.121094-3.703125 5.984375-3.085938 13.675781 1.519531 18.996094 4.605469 5.316406 12.132813 7.023437 18.582031 4.214844 6.449219-2.804688 10.328126-9.480469 9.574219-16.476563v-58.613281c0-3.269532-1.460937-6.371094-3.984375-8.453125-2.523437-2.085938-5.839844-2.933594-9.054687-2.316407zm-13.058594 74.734375c-2.253906 0-4.082031-1.828125-4.082031-4.082031s1.828125-4.082031 4.082031-4.082031c2.257813 0 4.082032 1.828125 4.082032 4.082031s-1.828126 4.082031-4.082032 4.082031zm49.835938-6.328125c-2.140625.003907-3.921875-1.652343-4.074219-3.792969-.148437-2.136718 1.378906-4.03125 3.5-4.328124 2.125-.300782 4.117187 1.09375 4.566406 3.1875v.667968c0 .230469.015625.457032.039063.6875-.246094 2.039063-1.976563 3.574219-4.03125 3.578125zm3.992187-57.007812-37.746093 6.667969v-6.410157l37.746093-6.421875zm0 0" fill="url(#linear11)"></path></svg>